<svg width="12" height="11" viewBox="0 0 12 11" fill="none" xmlns="http://www.w3.org/2000/svg">
<path d="M4.91128 2.52968V4.15493H3.28603V2.52968H4.91128ZM5.72391 1.71705H2.4734V4.96756H5.72391V1.71705ZM4.91128 6.86369V8.48894H3.28603V6.86369H4.91128ZM5.72391 6.05106H2.4734V9.30157H5.72391V6.05106ZM9.24529 2.52968V4.15493H7.62004V2.52968H9.24529ZM10.0579 1.71705H6.80741V4.96756H10.0579V1.71705ZM6.80741 6.05106H7.62004V6.86369H6.80741V6.05106ZM7.62004 6.86369H8.43266V7.67631H7.62004V6.86369ZM8.43266 6.05106H9.24529V6.86369H8.43266V6.05106ZM6.80741 7.67631H7.62004V8.48894H6.80741V7.67631ZM7.62004 8.48894H8.43266V9.30157H7.62004V8.48894ZM8.43266 7.67631H9.24529V8.48894H8.43266V7.67631ZM9.24529 6.86369H10.0579V7.67631H9.24529V6.86369ZM9.24529 8.48894H10.0579V9.30157H9.24529V8.48894ZM11.6832 2.80055H10.5997V1.1753H8.97441V0.0917969H11.6832V2.80055ZM11.6832 10.9268V8.21807H10.5997V9.84332H8.97441V10.9268H11.6832ZM0.848145 10.9268H3.5569V9.84332H1.93165V8.21807H0.848145V10.9268ZM0.848145 0.0917969V2.80055H1.93165V1.1753H3.5569V0.0917969H0.848145Z" fill="black"/>
</svg>
